# xmcd
#
# Track frame offsets:
#	200
#	10842
#	21412
#	42350
#	57637
#	67602
#	81305
#	92427
#	105570
#	125975
#	140427
#	151777
#	166252
#	176757
#
# Disc length: 2471 seconds
#
# Revision: 1
# Processed by: cddbd v1.4PL0 Copyright (c) Steve Scherf et al.
# Submitted via: audiograbber 1.82.02
#
DISCID=b409a50e
DTITLE=Carl "Sonny" Leyland - I'm Wise
DYEAR=1999
DGENRE=
TTITLE0=Wine Women and Song
TTITLE1=Yes, You've Done It
TTITLE2=Done Tore Your Playhouse Down
TTITLE3=The Honky Tonk Wine
TTITLE4=I'm Wise
TTITLE5=Ruthie Lee
TTITLE6=Midnight Steppers
TTITLE7=I Believed
TTITLE8=Sunny Road
TTITLE9=Kingfish Boogie
TTITLE10=Big Foot Baby
TTITLE11=Get Used to the Blues
TTITLE12=Beer and Boogie
TTITLE13=C.S.L. Blues
EXTD=
EXTT0=
EXTT1=
EXTT2=
EXTT3=
EXTT4=
EXTT5=
EXTT6=
EXTT7=
EXTT8=
EXTT9=
EXTT10=
EXTT11=
EXTT12=
EXTT13=
PLAYORDER=
